<?xml version="1.0" standalone="no"?>
<!DOCTYPE svg PUBLIC "-//W3C//DTD SVG 20010904//EN"
 "http://www.w3.org/TR/2001/REC-SVG-20010904/DTD/svg10.dtd">
<svg version="1.0" xmlns="http://www.w3.org/2000/svg"
 width="1152.000000pt" height="816.000000pt" viewBox="0 0 1152.000000 816.000000"
 preserveAspectRatio="xMidYMid meet">

<g transform="translate(0.000000,816.000000) scale(0.100000,-0.100000)"
fill="#000000" stroke="none">
<path d="M4911 7632 c-5 -10 -13 -43 -17 -73 -4 -30 -11 -59 -15 -65 -5 -6
-13 -37 -18 -70 -6 -32 -17 -93 -25 -134 -8 -41 -15 -94 -15 -118 -1 -24 -6
-52 -12 -63 -5 -11 -14 -52 -19 -92 -5 -40 -14 -101 -20 -137 -6 -36 -15 -103
-20 -150 -4 -47 -12 -102 -18 -123 -6 -21 -13 -102 -17 -180 -4 -78 -11 -147
-16 -153 -5 -6 -14 -65 -19 -130 -6 -65 -15 -162 -20 -214 -6 -52 -15 -196
-20 -320 -5 -124 -14 -290 -20 -370 -6 -80 -9 -312 -8 -515 l3 -371 -100 102
c-96 99 -218 195 -299 236 -40 20 -182 68 -203 68 -26 0 -31 27 -53 259 -6 57
-14 109 -19 115 -5 6 -12 88 -15 181 -4 94 -12 190 -18 215 -5 25 -13 83 -18
130 -4 47 -15 119 -24 160 -9 41 -16 89 -16 105 0 17 -6 50 -14 75 -8 25 -21
88 -30 140 -19 123 -34 190 -45 204 -5 6 -12 38 -15 71 -4 33 -13 80 -21 105
-16 54 -43 161 -54 212 -5 21 -13 43 -18 50 -6 7 -13 33 -17 58 -4 25 -11 52
-16 60 -9 15 -54 17 -116 6 -39 -8 -43 -24 -14 -64 33 -44 88 -207 110 -325 5
-27 13 -54 18 -60 6 -7 15 -43 21 -81 5 -38 15 -74 21 -80 5 -5 10 -24 10 -40
0 -17 7 -53 16 -81 8 -27 19 -82 24 -122 5 -40 14 -80 19 -90 5 -10 14 -65 21
-123 6 -57 16 -112 21 -121 5 -10 9 -37 9 -61 0 -24 5 -61 11 -83 6 -22 17
-110 24 -196 7 -87 18 -166 24 -177 6 -12 11 -51 11 -87 0 -37 6 -93 14 -124
8 -31 16 -92 20 -137 l5 -80 -69 -37 c-89 -49 -165 -118 -181 -164 -25 -77 -6
-159 68 -287 7 -11 58 -66 114 -121 61 -60 108 -116 119 -140 9 -22 20 -77 23
-122 4 -45 11 -90 16 -100 5 -10 14 -91 20 -181 5 -90 14 -169 19 -175 5 -7
12 -61 16 -122 4 -60 11 -141 16 -180 5 -38 13 -135 19 -214 6 -80 15 -149 21
-155 5 -5 10 -44 11 -86 0 -41 7 -151 15 -245 8 -93 21 -309 29 -480 18 -375
24 -467 35 -479 5 -5 21 1 38 12 35 25 58 108 48 168 -4 21 -11 140 -16 264
-5 124 -14 275 -20 335 -5 61 -14 170 -19 243 -5 74 -14 139 -20 145 -6 6 -11
48 -12 97 0 47 -7 157 -15 245 -8 88 -19 212 -24 275 -5 63 -14 124 -19 135
-5 11 -14 115 -19 232 -6 117 -16 221 -21 232 -6 11 -11 46 -11 78 l0 58 128
0 c131 0 188 9 324 51 127 39 114 70 122 -278 4 -167 12 -346 16 -398 5 -52
14 -155 19 -229 6 -73 14 -138 19 -145 5 -6 13 -81 17 -166 4 -87 13 -173 21
-195 7 -22 14 -67 14 -100 0 -33 7 -96 15 -140 8 -44 19 -129 25 -189 5 -60
14 -114 20 -120 5 -5 10 -37 10 -71 1 -33 8 -127 16 -210 29 -283 30 -251 -6
-286 -31 -31 -31 -32 -12 -51 26 -26 61 -16 91 27 23 34 23 39 19 207 -2 123
-7 173 -16 176 -8 2 -12 30 -12 85 -1 45 -8 129 -16 187 -8 58 -19 145 -24
193 -5 49 -13 94 -18 100 -5 7 -15 81 -21 166 -5 85 -15 159 -21 165 -5 5 -10
44 -10 85 0 41 -7 100 -14 130 -9 34 -19 152 -25 295 -6 131 -14 243 -19 250
-5 6 -12 127 -14 270 -4 188 -9 260 -18 266 -6 4 -10 18 -8 31 4 23 5 23 13 4
5 -11 18 -30 29 -42 49 -51 56 -60 56 -68 0 -4 24 -36 53 -71 28 -34 68 -86
87 -114 19 -28 41 -58 49 -67 8 -8 22 -28 30 -44 9 -16 43 -68 76 -116 33 -48
62 -92 65 -98 19 -36 53 -85 61 -85 5 0 9 -9 9 -19 0 -11 5 -23 11 -27 6 -3
17 -21 25 -38 8 -17 24 -44 34 -61 11 -16 27 -43 35 -60 37 -72 88 -161 101
-176 8 -8 14 -22 14 -30 0 -8 16 -38 35 -68 19 -29 35 -59 35 -66 0 -7 6 -18
14 -24 8 -7 18 -25 21 -41 3 -16 13 -34 21 -41 8 -6 14 -20 14 -31 0 -10 7
-21 15 -24 8 -3 17 -21 21 -40 3 -18 12 -38 20 -45 8 -6 14 -16 14 -22 0 -10
34 -88 51 -117 5 -8 14 -26 19 -40 26 -62 55 -120 62 -120 3 0 10 -15 13 -32
4 -18 14 -44 21 -58 8 -14 18 -36 24 -50 5 -14 14 -32 19 -40 4 -8 15 -31 23
-50 14 -34 32 -74 75 -170 12 -25 24 -55 28 -67 3 -13 11 -23 16 -23 5 0 9 -8
9 -18 0 -9 9 -34 20 -55 11 -20 20 -43 20 -51 0 -7 6 -19 14 -25 8 -7 17 -27
20 -45 4 -19 13 -39 21 -46 8 -7 15 -20 15 -30 0 -10 6 -23 14 -29 8 -7 18
-26 21 -42 4 -16 11 -31 16 -35 5 -3 16 -20 25 -37 30 -64 45 -86 79 -116 43
-38 78 -47 113 -31 l27 12 -30 24 c-17 13 -34 29 -40 35 -5 5 -18 18 -27 27
-10 9 -18 21 -18 26 0 5 -7 18 -17 28 -20 23 -26 33 -109 198 -37 74 -70 137
-74 140 -5 3 -13 24 -19 47 -6 23 -16 45 -21 48 -6 3 -10 12 -10 20 0 8 -15
47 -34 87 -19 40 -39 90 -46 110 -6 21 -16 40 -21 43 -5 4 -9 15 -9 26 0 11
-6 22 -14 25 -8 3 -17 21 -21 40 -3 19 -22 65 -40 102 -19 37 -35 72 -35 78 0
6 -7 17 -15 24 -8 7 -15 20 -15 29 0 13 -57 140 -90 201 -10 17 -75 148 -114
230 -15 30 -34 69 -43 85 -20 38 -25 46 -63 120 -17 33 -35 67 -40 75 -6 8
-15 26 -20 40 -6 14 -19 39 -30 55 -10 17 -33 57 -50 90 -18 33 -38 67 -46 76
-8 8 -14 23 -14 33 0 9 -7 19 -15 22 -8 4 -15 11 -15 18 0 6 -18 38 -40 71
-22 33 -40 66 -40 73 0 6 -5 12 -10 12 -6 0 -14 8 -18 18 -15 34 -54 92 -63
92 -5 0 -9 7 -9 15 0 8 -9 23 -20 32 -11 10 -20 21 -20 25 0 9 -62 101 -90
133 -9 11 -20 27 -23 35 -3 8 -35 52 -71 97 -36 45 -66 83 -66 86 0 2 21 12
48 22 62 24 546 370 607 435 6 6 46 38 90 71 44 33 98 77 120 98 22 21 60 53
85 71 82 61 282 240 333 298 7 7 23 23 37 35 87 76 237 241 320 352 29 39 58
75 64 80 18 17 56 73 56 84 0 6 6 14 13 18 6 4 26 28 42 53 16 25 32 47 35 50
30 27 170 279 170 305 0 7 7 18 15 25 8 7 15 20 15 30 0 10 7 23 15 30 8 7 15
20 15 29 0 9 7 30 16 46 23 43 64 175 64 206 0 14 8 41 17 60 14 27 17 73 21
249 5 244 0 267 -64 316 -32 25 -47 29 -99 29 -51 0 -74 -6 -140 -40 -72 -35
-285 -179 -310 -209 -5 -6 -48 -42 -95 -79 -129 -103 -130 -104 -130 -127 0
-24 21 -35 53 -26 12 3 63 39 112 81 139 116 271 209 368 259 134 69 188 71
202 6 4 -16 11 -32 16 -35 13 -8 11 -182 -2 -206 -5 -11 -15 -61 -20 -112 -6
-50 -14 -94 -19 -97 -4 -3 -12 -25 -18 -50 -19 -81 -42 -145 -91 -251 -12 -25
-21 -53 -21 -62 0 -8 -6 -17 -14 -20 -7 -3 -16 -22 -20 -41 -4 -20 -11 -36
-15 -36 -5 0 -14 -12 -20 -27 -6 -16 -22 -46 -36 -68 -13 -22 -27 -47 -32 -55
-19 -40 -153 -229 -235 -335 -32 -40 -58 -78 -58 -84 0 -6 -4 -11 -9 -11 -5 0
-45 -41 -88 -91 -147 -172 -490 -500 -693 -664 -52 -42 -110 -91 -129 -108
-19 -18 -42 -36 -52 -42 -9 -5 -73 -53 -141 -106 -164 -128 -415 -299 -439
-299 -45 0 -46 18 -44 480 3 508 14 931 26 945 7 9 22 195 35 429 2 33 8 73
14 89 5 17 10 69 10 116 0 49 5 92 11 98 6 6 15 73 21 149 5 77 14 148 19 159
5 11 14 49 19 85 5 36 16 106 24 155 9 50 16 108 16 131 0 22 5 45 10 50 6 6
15 48 21 95 5 46 15 102 21 124 5 22 14 67 19 100 4 33 11 76 15 96 3 23 2 39
-5 43 -6 4 -11 17 -11 30 0 42 -41 62 -59 28z m-801 -3003 c102 -39 267 -158
378 -273 45 -46 82 -89 82 -94 0 -5 9 -17 20 -27 11 -10 20 -30 20 -46 0 -24
-6 -29 -57 -44 -32 -9 -75 -23 -96 -31 -20 -8 -51 -14 -67 -14 -16 0 -32 -4
-35 -10 -4 -6 -63 -10 -144 -10 l-138 0 -11 68 c-18 111 -31 231 -37 347 -3
61 -10 112 -15 113 -17 6 -12 52 5 52 9 0 51 -14 95 -31z m-194 -20 c4 -7 6
-48 5 -93 -1 -44 3 -137 9 -205 5 -68 9 -126 7 -127 -11 -11 -132 147 -156
203 -6 11 -15 24 -20 28 -16 10 -13 83 5 114 19 31 101 91 126 91 9 0 20 -5
24 -11z"/>
<path d="M7219 7088 c-27 -22 -51 -135 -56 -268 -3 -69 -10 -130 -15 -137 -5
-6 -13 -74 -18 -150 -5 -76 -16 -210 -25 -298 -14 -134 -15 -247 -11 -700 2
-297 9 -585 15 -640 5 -55 15 -173 20 -263 6 -89 15 -171 21 -182 5 -10 10
-61 11 -112 0 -51 7 -165 15 -253 8 -88 19 -216 24 -284 5 -68 14 -129 19
-135 5 -6 12 -100 16 -209 4 -109 11 -224 17 -255 5 -32 13 -120 18 -197 5
-77 14 -180 19 -230 6 -49 15 -150 21 -223 5 -73 14 -141 19 -150 4 -9 11 -82
15 -162 3 -80 11 -165 17 -190 5 -25 14 -92 20 -150 5 -58 14 -117 19 -132 7
-23 5 -31 -18 -48 -37 -30 -20 -54 41 -58 64 -4 74 15 52 110 -9 39 -15 93
-14 122 4 87 -21 450 -31 460 -6 6 -10 66 -11 136 0 69 -7 188 -15 265 -8 77
-19 185 -24 240 -5 55 -14 109 -19 120 -5 11 -14 105 -20 209 -6 105 -15 194
-21 200 -5 5 -10 51 -10 101 -1 49 -7 142 -15 205 -8 63 -19 177 -24 254 -6
76 -14 143 -20 149 -6 6 -11 56 -12 116 0 59 -7 183 -15 276 -8 94 -19 233
-25 309 -5 77 -14 145 -20 152 -14 17 -13 888 1 914 6 11 15 80 20 153 5 72
16 197 24 277 8 80 15 179 15 221 1 41 5 79 11 85 5 5 13 43 16 84 4 41 15 99
26 129 19 57 23 108 10 128 -12 19 -65 26 -83 11z m28 -3135 c-3 -10 -5 -4 -5
12 0 17 2 24 5 18 2 -7 2 -21 0 -30z m10 -95 c-3 -8 -6 -5 -6 6 -1 11 2 17 5
13 3 -3 4 -12 1 -19z m10 -105 c-3 -10 -5 -4 -5 12 0 17 2 24 5 18 2 -7 2 -21
0 -30z m10 -125 c-2 -18 -4 -4 -4 32 0 36 2 50 4 33 2 -18 2 -48 0 -65z m10
-115 c-3 -10 -5 -4 -5 12 0 17 2 24 5 18 2 -7 2 -21 0 -30z"/>
<path d="M8890 6991 c-5 -11 -10 -33 -10 -50 0 -32 1 -33 80 -46 106 -17 126
-17 139 -1 12 14 11 19 -5 37 -25 27 -96 59 -133 59 -16 0 -33 5 -36 10 -10
16 -23 12 -35 -9z"/>
<path d="M3360 6547 c0 -9 5 -19 10 -22 13 -8 13 -97 0 -144 -5 -20 -14 -130
-20 -246 -5 -115 -14 -235 -19 -265 -6 -30 -13 -84 -16 -120 -3 -36 -12 -87
-20 -115 -7 -27 -16 -88 -20 -135 -3 -47 -13 -104 -21 -128 -8 -23 -14 -61
-14 -83 0 -22 -4 -48 -9 -58 -6 -9 -15 -67 -21 -127 -6 -60 -16 -125 -22 -144
-6 -19 -14 -64 -19 -100 -4 -36 -13 -94 -19 -130 -6 -36 -15 -99 -20 -140 -4
-41 -13 -93 -18 -115 -6 -22 -14 -119 -18 -215 -4 -104 -11 -181 -18 -189 -16
-21 -16 -1278 1 -1307 14 -24 31 -933 19 -1027 -6 -44 -15 -66 -38 -93 -16
-18 -35 -34 -42 -34 -23 0 -130 113 -241 255 -39 50 -74 98 -78 107 -3 10 -11
18 -16 18 -5 0 -13 10 -17 22 -3 12 -21 42 -38 67 -18 25 -35 53 -39 61 -4 8
-18 33 -30 55 -13 22 -37 66 -54 97 -17 32 -45 78 -62 103 -17 25 -31 52 -31
59 0 8 -6 19 -14 25 -8 7 -17 24 -21 39 -3 15 -19 47 -34 72 -15 25 -42 74
-59 110 -18 36 -36 72 -41 80 -4 8 -15 31 -24 50 -8 19 -34 75 -56 123 -23 49
-41 94 -41 102 0 7 -6 20 -13 27 -8 7 -17 30 -21 50 -3 20 -13 41 -21 48 -8 7
-15 22 -15 34 0 12 -6 30 -14 41 -7 11 -17 36 -21 55 -4 19 -20 62 -36 96 -16
33 -32 76 -35 95 -4 19 -13 45 -20 59 -7 14 -22 57 -34 95 -12 39 -28 84 -35
100 -8 17 -19 56 -26 88 -7 32 -16 60 -21 63 -4 3 -8 13 -8 22 0 9 -7 30 -15
46 -8 15 -19 54 -24 86 -5 32 -14 66 -19 76 -10 21 -52 191 -52 212 0 8 -6 28
-14 45 -7 18 -21 75 -30 127 -27 154 -35 191 -44 203 -5 7 -14 52 -20 101 -7
49 -16 94 -21 100 -5 6 -11 36 -14 66 -4 30 -11 78 -16 105 -6 28 -15 88 -21
135 -6 47 -15 89 -20 94 -6 6 -10 33 -11 61 0 27 -7 104 -15 170 -8 66 -19
167 -24 224 -6 57 -14 109 -19 115 -5 6 -12 101 -16 211 -7 214 -17 257 -68
297 -53 43 -89 2 -107 -122 -6 -47 -16 -93 -21 -103 -5 -10 -14 -57 -19 -105
-5 -48 -16 -132 -24 -187 -8 -55 -16 -132 -16 -170 0 -39 -5 -76 -10 -81 -6
-6 -15 -100 -21 -210 -5 -109 -14 -215 -20 -234 -6 -19 -14 -84 -19 -145 -5
-60 -16 -173 -24 -250 -8 -77 -15 -174 -15 -215 -1 -42 -5 -80 -11 -86 -5 -5
-14 -61 -20 -124 -5 -63 -16 -164 -25 -225 -8 -60 -15 -139 -15 -175 0 -37 -5
-71 -10 -76 -6 -6 -15 -91 -21 -190 -5 -98 -15 -194 -21 -213 -6 -19 -14 -82
-19 -140 -5 -58 -13 -153 -19 -211 -6 -58 -15 -206 -20 -330 -5 -124 -14 -277
-20 -340 -16 -159 -9 -1115 8 -1132 8 -8 12 -55 12 -141 0 -155 19 -418 31
-432 5 -5 9 -17 9 -27 0 -15 9 -18 50 -18 55 0 64 15 35 54 -8 11 -15 27 -15
35 0 9 -6 28 -14 42 -8 16 -18 95 -25 205 -6 98 -14 206 -17 239 -10 99 -7
1269 4 1420 5 77 13 221 17 320 4 99 12 185 16 191 5 6 14 74 20 150 6 76 15
175 20 219 5 44 12 125 15 180 3 55 10 105 16 112 5 6 14 83 19 170 6 87 15
166 20 177 6 10 15 57 20 105 4 47 15 142 23 211 8 69 15 159 15 201 1 41 6
80 11 85 6 6 17 98 25 205 7 107 19 210 24 229 6 19 11 70 11 113 0 43 5 87
10 98 6 11 16 75 21 142 6 67 17 141 25 165 8 23 14 57 14 74 0 17 4 45 10 62
5 17 12 44 15 60 l6 29 18 -29 c11 -18 21 -60 25 -109 3 -44 10 -109 15 -145
6 -36 15 -114 21 -175 6 -60 15 -114 20 -119 6 -6 10 -33 11 -61 0 -27 7 -86
14 -130 8 -44 19 -111 25 -149 5 -39 14 -72 19 -75 4 -3 12 -44 16 -91 4 -47
13 -100 21 -119 8 -18 14 -46 14 -61 0 -16 9 -57 20 -92 11 -34 20 -77 20 -93
0 -17 6 -39 14 -50 7 -11 16 -47 20 -80 4 -32 13 -73 21 -89 8 -16 15 -43 15
-60 0 -17 6 -40 14 -51 7 -11 17 -47 21 -80 4 -33 12 -73 19 -90 22 -52 56
-163 56 -180 0 -10 6 -31 14 -48 8 -18 20 -56 26 -85 7 -28 16 -55 21 -58 5
-3 9 -17 9 -32 0 -15 6 -37 14 -48 8 -11 18 -38 21 -60 4 -21 13 -50 20 -64
15 -31 43 -113 55 -160 5 -19 14 -36 19 -38 6 -2 11 -13 11 -25 0 -19 10 -44
61 -153 10 -23 19 -47 19 -54 0 -6 6 -24 14 -38 14 -25 22 -44 77 -169 11 -27
24 -55 29 -63 5 -8 21 -40 36 -70 14 -30 45 -92 68 -138 22 -45 47 -95 54
-110 7 -15 17 -34 22 -42 5 -8 25 -46 44 -85 19 -38 46 -87 60 -108 14 -21 26
-42 26 -46 0 -5 6 -14 14 -20 8 -7 17 -23 20 -37 7 -25 36 -73 63 -102 7 -7
13 -18 13 -24 0 -5 13 -27 29 -47 15 -20 34 -48 42 -63 8 -14 33 -47 57 -72
23 -25 70 -81 104 -123 103 -131 183 -193 249 -193 32 0 43 7 78 47 23 25 44
58 47 72 3 14 13 42 22 61 13 30 15 87 13 420 -1 212 -6 432 -12 490 -26 268
-32 1394 -8 1442 5 10 14 91 19 180 6 90 16 179 22 198 6 19 15 62 19 95 5 33
15 101 23 150 8 50 15 113 15 141 1 27 6 55 11 60 6 6 15 46 20 90 5 43 14
104 20 134 6 30 13 84 16 120 3 36 12 83 19 105 7 22 16 87 20 145 4 58 12
110 17 117 6 7 14 47 19 90 4 43 14 112 20 153 6 41 12 196 13 345 1 247 -1
273 -18 305 -10 19 -22 41 -25 49 -4 8 -17 21 -29 29 -20 13 -22 13 -22 -1z"/>
<path d="M9545 6519 c-12 -18 4 -58 28 -71 12 -7 56 -16 97 -20 41 -4 100 -12
131 -19 l57 -13 41 -81 c23 -45 41 -90 41 -101 0 -11 7 -29 15 -40 20 -26 20
-152 0 -190 -8 -16 -15 -41 -15 -56 0 -25 -29 -86 -98 -208 -48 -84 -145 -201
-223 -268 -117 -102 -180 -152 -190 -152 -17 0 -9 -19 18 -45 38 -34 66 -32
161 16 47 23 96 41 115 41 46 -1 114 -34 171 -84 l48 -43 0 -75 c1 -41 -3
-136 -7 -210 -9 -149 -2 -180 38 -180 23 0 70 -37 99 -79 22 -31 48 -21 48 18
0 42 -20 133 -33 149 -15 19 -16 344 0 363 6 8 16 34 23 59 7 25 17 51 23 59
14 17 33 48 51 86 24 50 112 131 187 170 38 20 99 59 134 86 68 52 92 59 138
40 40 -16 68 -13 95 8 22 19 22 20 5 50 -14 24 -25 31 -48 31 -16 0 -36 -4
-44 -9 -9 -6 -37 -2 -75 9 -105 31 -280 96 -311 115 -32 20 -105 95 -105 108
0 4 -12 19 -26 32 -24 22 -27 34 -30 96 -1 40 -7 76 -13 82 -6 6 -11 20 -11
32 0 11 -9 34 -20 50 -11 17 -20 36 -20 44 0 8 -6 22 -14 30 -7 9 -21 39 -30
67 -24 74 -44 89 -125 90 -36 0 -84 6 -106 12 -51 15 -212 16 -220 1z m385
-79 c0 -5 -4 -10 -10 -10 -5 0 -10 5 -10 10 0 6 5 10 10 10 6 0 10 -4 10 -10z
m193 -537 c73 -77 122 -107 260 -158 71 -26 62 -52 -33 -96 -102 -48 -270
-189 -270 -228 0 -6 -4 -11 -9 -11 -5 0 -21 -19 -34 -43 -40 -68 -53 -75 -85
-45 -36 32 -98 72 -147 94 -22 9 -42 19 -44 21 -2 1 10 17 27 34 18 18 44 51
59 73 16 23 30 43 33 46 5 5 48 73 67 105 69 120 93 179 93 231 0 30 3 54 6
54 3 0 38 -34 77 -77z m391 -179 c14 -5 14 -8 0 -21 -9 -9 -21 -12 -32 -7 -14
6 -13 8 7 12 19 3 21 6 10 13 -16 10 -8 12 15 3z m-760 -335 c-5 -9 -54 -9
-54 0 0 2 8 13 17 23 16 18 18 18 30 2 7 -9 10 -21 7 -25z m-79 -19 c3 -5 1
-10 -4 -10 -6 0 -11 5 -11 10 0 6 2 10 4 10 3 0 8 -4 11 -10z m435 -45 c0 -9
-7 -18 -15 -21 -8 -4 -15 -16 -15 -28 0 -11 -11 -43 -24 -70 l-23 -48 -17 23
c-25 37 -20 57 32 110 50 52 62 58 62 34z m-107 -234 c-10 -13 -24 20 -17 40
8 23 8 23 14 -6 3 -16 5 -32 3 -34z m7 -211 c6 -22 15 -40 20 -40 6 0 10 -18
10 -40 0 -31 -3 -38 -15 -34 -8 4 -15 18 -15 33 0 14 -6 38 -14 53 -12 23 -12
68 0 68 2 0 8 -18 14 -40z m60 -150 c0 -5 -3 -15 -6 -24 -9 -22 -24 -10 -24
19 0 18 4 23 15 19 8 -4 15 -10 15 -14z"/>
<path d="M8098 5868 c-37 -13 -35 -27 6 -60 19 -16 37 -41 41 -58 4 -16 11
-32 16 -35 5 -4 9 -23 9 -43 0 -20 7 -62 15 -92 10 -34 17 -118 20 -220 3 -91
7 -216 9 -277 5 -131 1 -136 -71 -77 -24 20 -51 37 -61 38 -9 2 -19 11 -21 22
-3 17 -50 78 -115 147 -14 15 -26 32 -26 37 0 13 -184 200 -197 200 -5 0 -17
-6 -26 -13 -17 -12 -17 -14 -1 -47 17 -34 107 -158 139 -191 8 -9 15 -21 15
-27 0 -7 16 -29 35 -51 19 -21 35 -42 35 -46 0 -5 7 -15 15 -24 65 -70 74 -91
39 -91 -23 0 -226 -50 -246 -61 -13 -7 -18 -22 -18 -54 0 -45 0 -45 35 -45 39
0 60 5 332 73 37 9 46 8 63 -8 11 -10 17 -22 14 -27 -3 -5 2 -16 12 -23 24
-18 35 -19 28 -1 -3 7 2 16 10 19 9 4 16 13 16 20 0 14 71 47 102 47 11 0 15
6 11 20 -6 22 7 26 24 9 12 -12 56 5 125 48 21 13 43 23 49 23 16 0 218 130
249 160 56 55 41 86 -27 54 -77 -36 -150 -85 -213 -143 -35 -33 -76 -66 -90
-73 -14 -7 -37 -20 -52 -30 -69 -47 -48 -24 225 253 159 161 254 249 340 313
43 33 45 45 13 82 l-23 28 -54 -34 c-106 -65 -224 -164 -214 -181 4 -5 1 -8
-7 -7 -7 2 -12 -3 -10 -10 1 -8 -1 -11 -6 -8 -9 5 -86 -70 -93 -90 -9 -27
-224 -254 -240 -254 -5 0 -9 35 -10 78 0 147 -42 566 -57 586 -5 6 -12 25 -15
42 -8 40 -74 114 -101 113 -12 0 -33 -5 -48 -11z"/>
<path d="M9000 5215 c-19 -23 -1 -79 27 -83 29 -4 73 25 73 48 0 43 -72 68
-100 35z"/>
<path d="M8303 4860 c-37 -22 -37 -23 -23 -50 14 -26 3 -46 -33 -61 -18 -7
-43 -22 -56 -33 -13 -12 -21 -15 -17 -8 6 10 2 13 -15 10 -31 -4 -37 25 -10
49 12 9 21 24 21 32 0 12 -3 12 -12 3 -7 -7 -20 -12 -30 -12 -11 0 -18 -7 -18
-20 0 -12 -10 -24 -22 -30 -13 -5 -97 -83 -187 -175 -90 -91 -181 -175 -202
-185 -53 -27 -87 -26 -100 4 -11 24 -52 49 -63 39 -3 -4 -6 -20 -6 -37 0 -51
63 -106 121 -106 64 0 208 98 361 245 134 128 195 176 214 168 11 -4 13 -13 9
-27 -24 -77 -27 -145 -22 -509 3 -253 9 -392 16 -400 6 -8 12 -71 13 -148 l3
-134 50 0 c45 0 50 2 53 23 2 13 -5 33 -15 44 -17 19 -18 53 -21 537 -2 284
-1 553 3 597 l7 82 46 -15 c26 -8 64 -19 84 -23 21 -4 43 -12 50 -17 13 -11
40 -18 118 -33 25 -4 63 -13 85 -19 55 -15 337 -14 370 1 50 22 29 35 -72 41
-127 9 -277 32 -378 58 -131 34 -299 104 -289 121 8 12 2 10 -33 -12z"/>
<path d="M10687 4542 c-19 -21 -22 -57 -7 -67 6 -3 10 -21 10 -40 0 -48 18
-54 52 -16 30 33 37 85 18 122 -13 24 -52 25 -73 1z"/>
<path d="M10198 4057 c-27 -6 -48 -15 -48 -20 0 -5 11 -6 25 -3 26 7 26 6 11
-22 -18 -36 -77 -93 -232 -226 -67 -58 -139 -126 -160 -153 -62 -76 -202 -215
-213 -212 -6 3 -13 55 -15 126 -3 68 -10 132 -16 142 -5 11 -10 36 -10 56 0
20 -6 51 -14 68 -8 18 -17 58 -21 91 -9 78 -39 111 -93 101 -53 -10 -55 -13
-32 -49 11 -19 20 -42 20 -53 0 -10 7 -28 15 -39 8 -10 15 -34 15 -52 0 -18 4
-52 9 -75 15 -68 30 -195 36 -310 l6 -107 -30 -30 c-34 -34 -49 -38 -58 -12
-3 9 -18 44 -33 77 -16 33 -31 76 -35 95 -4 19 -13 46 -20 60 -17 33 -52 127
-59 163 -4 15 -11 27 -16 27 -6 0 -10 9 -10 20 0 30 -25 85 -49 109 -22 22
-85 29 -96 11 -4 -6 3 -27 14 -46 12 -19 21 -41 21 -49 0 -8 6 -18 13 -22 7
-4 17 -26 24 -48 6 -22 21 -65 33 -95 12 -30 28 -78 35 -107 7 -28 16 -56 19
-62 14 -21 45 -156 38 -163 -10 -9 -163 -44 -392 -88 -25 -5 -64 -15 -88 -22
l-43 -13 42 -32 c48 -37 60 -39 121 -19 24 7 61 18 83 25 22 6 74 22 115 35
101 32 190 43 190 23 0 -50 -200 -234 -395 -364 -95 -63 -140 -83 -187 -83
-39 0 -49 -27 -19 -52 34 -27 82 -22 155 16 72 38 329 219 355 251 9 11 35 35
58 53 24 19 50 49 59 69 l17 35 44 -46 c23 -25 43 -48 43 -52 0 -4 15 -27 33
-53 53 -74 49 -52 75 -421 l7 -105 30 0 30 0 3 185 c1 101 6 188 11 193 4 4
28 1 52 -8 60 -21 158 -29 192 -16 34 13 36 41 2 41 -23 0 -97 21 -140 40 -11
5 -33 13 -49 17 -16 5 -33 16 -37 24 -27 52 -49 347 -27 353 7 2 40 11 73 21
141 39 231 67 247 76 10 5 26 9 37 9 10 0 32 7 47 15 16 8 37 15 47 15 9 0 25
4 35 9 9 6 28 12 42 15 37 8 120 63 120 81 0 17 -25 21 -35 5 -3 -5 -13 -10
-22 -10 -8 0 -29 -6 -46 -14 -60 -27 -205 -66 -402 -108 -112 -24 -160 -51
-176 -101 -7 -23 -26 -53 -42 -67 -26 -23 -28 -27 -17 -55 7 -16 16 -52 20
-80 5 -27 17 -75 28 -105 12 -34 15 -56 9 -59 -15 -6 -65 59 -73 94 -3 17 -12
41 -19 55 -29 56 -55 137 -49 153 3 9 14 17 24 17 23 0 80 47 80 66 0 7 30 36
68 63 37 27 83 69 102 93 19 23 160 168 313 321 247 246 278 281 273 302 -7
28 -19 29 -98 12z"/>
<path d="M10050 3939 c0 -5 5 -7 10 -4 6 3 10 8 10 11 0 2 -4 4 -10 4 -5 0
-10 -5 -10 -11z"/>
<path d="M10020 3909 c0 -5 5 -7 10 -4 6 3 10 8 10 11 0 2 -4 4 -10 4 -5 0
-10 -5 -10 -11z"/>
<path d="M10804 3098 c3 -18 11 -35 16 -38 5 -3 12 -25 16 -48 3 -23 13 -47
20 -53 8 -6 14 -17 14 -24 0 -24 51 -55 91 -55 51 0 56 14 15 39 -35 22 -98
93 -109 124 -3 9 -11 17 -16 17 -5 0 -12 16 -15 35 -5 22 -13 35 -23 35 -12 0
-14 -7 -9 -32z"/>
<path d="M8056 2459 c-32 -38 -34 -93 -7 -145 24 -44 48 -63 82 -64 32 0 42
19 25 51 -23 44 -39 119 -33 154 5 32 4 35 -18 35 -14 0 -34 -12 -49 -31z"/>
<path d="M10437 2162 c-16 -3 -18 -11 -13 -60 2 -32 8 -79 13 -107 8 -47 10
-50 41 -53 37 -4 42 14 18 60 -8 15 -17 57 -21 93 -8 70 -10 74 -38 67z"/>
</g>
</svg>
